<?xml version="1.0" encoding="UTF-8"?>
<svg id="Lag_2" xmlns="http://www.w3.org/2000/svg" viewBox="0 0 1862.12 1744.68">
  <defs>
    <style>
      .cls-1 {
        fill: #0095d5;
      }
    </style>
  </defs>
  <g id="Lag_1-2" data-name="Lag_1">
    <g>
      <polygon class="cls-1" points="979.44 241.77 1073.55 259.34 1166.63 262.57 1139.05 132.95 1132.91 0 1085.07 83.91 1040.6 163.89 979.44 241.77"/>
      <polygon class="cls-1" points="692.86 285.02 787.96 269.53 876.73 240.18 808.63 127.25 760.76 3.66 742.59 99.64 726.4 190.53 692.86 285.02"/>
      <polygon class="cls-1" points="1353.01 351.97 1437.23 412.33 1531.7 458.68 1577.31 337.4 1625.69 227.6 1536.25 252.74 1441.17 299.86 1353.01 351.97"/>
      <polygon class="cls-1" points="1594.77 598.43 1618.91 679.84 1644.8 753.5 1718.23 671.2 1788.16 584.5 1694.26 598.48 1594.77 598.43"/>
      <polygon class="cls-1" points="1649.32 874.04 1630.51 967.73 1627.18 1065.12 1751.21 1036.4 1862.12 993.71 1762.59 928.89 1649.32 874.04"/>
      <polygon class="cls-1" points="1606.74 1136.21 1556.01 1224.14 1515.58 1313.16 1589.61 1327.19 1676.91 1332.61 1630.4 1235.04 1606.74 1136.21"/>
      <polygon class="cls-1" points="1377.63 1416.48 1277.91 1459.91 1193.77 1510.33 1287.74 1565.82 1390.14 1615.35 1381.11 1519.22 1377.63 1416.48"/>
      <polygon class="cls-1" points="1050.3 1537.27 946.31 1535.06 841.33 1527.74 879.98 1629.39 909.58 1744.68 981.37 1635.81 1050.3 1537.27"/>
      <polygon class="cls-1" points="699.66 1527.56 602.4 1479.06 495.02 1430.58 492.29 1544.37 493.07 1660.36 595.79 1588.67 699.66 1527.56"/>
      <polygon class="cls-1" points="431.17 1417.45 359.52 1332.03 290.76 1247.88 291.64 1339.28 277.41 1425.61 431.17 1417.45"/>
      <polygon class="cls-1" points="286.06 1210.63 256.11 1093.41 218.92 968.48 114.41 1058.12 32.04 1154.62 156.95 1186.56 286.06 1210.63"/>
      <polygon class="cls-1" points="212.1 924.79 214.01 812.05 237.2 701.57 153.5 743.43 77.21 790.48 0 824.98 102.37 874.65 212.1 924.79"/>
      <polygon class="cls-1" points="382.5 446.46 465.57 380.12 560.53 318.39 442.35 279.39 335.43 252.79 359.13 344.61 382.5 446.46"/>
      <path class="cls-1" d="M1186.69,656.67h-1.78c-2.14,13.53-4.99,30.61-8.18,45.92-3.92,22.44-7.48,47.37-10.69,71.58h39.87c-3.21-24.21-7.11-49.49-11.02-71.93-3.57-14.59-6.08-32.04-8.21-45.57Z"/>
      <path class="cls-1" d="M666.81,768.47c-8.18,0-17.08.37-26.69.72,0,18.53,0,36.68.35,52.34,9.97.71,18.88.71,26.71.71,17.45,0,24.58-6.76,24.58-27.06s-7.85-26.71-24.95-26.71Z"/>
      <path class="cls-1" d="M690.68,695.47c0-18.86-7.46-24.56-23.5-24.56-8.18,0-17.08,0-26.71.72-.35,14.59-.35,33.47-.35,52.68,9.61.37,18.17.37,25.99.37,16.74-.37,24.56-8.19,24.56-29.2Z"/>
      <path class="cls-1" d="M1548.49,695.47c-20.47-63.14-51.9-115.43-93.18-165.39-40.34-48.83-86.52-87.93-145.78-121.13-53.45-29.92-109.26-59.38-177.33-74.28-59.31-12.95-123.1-27.27-193.02-27.27s-132.32,20.75-191.65,33.7c-68.06,14.89-136.42,17.97-189.82,47.91-59.27,33.18-103.1,84.95-143.42,133.77-41.3,49.98-79.43,104.51-99.9,167.66-19.26,59.43-15.04,125.89-15.04,194.24s-.94,135.67,17.66,196.13c19.93,64.71,59.24,117.62,99.56,169.04,39.94,50.92,83.16,99.46,142.15,134.2,53.75,31.62,112.52,67.15,181.29,82.91,60.04,13.76,128.17,14.38,199.16,14.38s134.73-20.03,194.77-33.8c68.78-15.74,131.38-32.79,185.09-64.42,59.03-34.74,117.24-71.01,157.18-121.91,40.34-51.41,70.12-114.15,90.06-178.89,18.62-60.46,33.79-128.24,33.79-197.64s-32.3-129.77-51.57-189.21ZM1190.6,502.89c32.42,0,54.5,15.67,54.5,44.51s-20.66,43.79-54.5,43.79-53.76-16.39-53.76-43.79c0-28.83,21.37-44.51,53.76-44.51ZM836.66,615.72h116.07c-.72,19.23-1.08,76.2-1.43,133.87v33.84c18.88-.35,41.67-.71,63.37-1.43,0,17.08-.37,33.82-.37,50.21s.37,33.82.37,50.56h-178.01c.35-21.01,1.41-76.55,1.41-133.52s0-107.9-1.41-133.52ZM662.83,1211.92c-101.81,0-129.43-22.75-129.43-76.83,0-7.1.38-14.56,1.13-22.38,17.14,1.12,41.75,2.98,64.87,2.98,11.21,0,21.27-.38,28.73-.75-.37,2.63-.37,5.23-.37,7.48,0,16.39,6.33,23.5,26.12,23.5s24.98-6.35,24.98-17.92c0-15.65-7.1-24.62-47.37-30.21-82.43-11.19-98.48-39.16-98.48-89.14,0-60.02,37.67-86.89,127.56-86.89,101.45,0,126.81,24.62,126.81,76.83,0,5.96-.37,12.29-.75,19-14.54-1.47-39.89-2.6-60.02-2.6-12.71,0-24.27.38-31.71.75.37-2.98.37-5.6.37-7.46,0-13.42-5.6-20.9-27.21-20.9-16.8,0-23.13,5.98-23.13,16.06,0,14.16,5.6,23.5,50.35,30.58,73.47,11.56,96.22,34.31,96.22,91s-32.45,86.91-128.66,86.91ZM711.69,882.76h-176.95c1.41-38.09,1.78-76.9,1.78-133.52s-.37-96.13-1.78-133.52h174.11c55.19,0,88.3,15.32,88.3,69.79,0,32.41-8.18,45.94-33.46,55.19-6.42,2.15-14.61,3.56-23.87,4.64v1.78c8.89.7,16.37,1.78,22.44,3.56,28.49,8.19,37.38,27.75,37.38,61.96,0,51.27-23.5,70.14-87.95,70.14ZM961.16,1211.54c-105.93,0-148.06-43.27-148.06-151.04s48.48-138.37,148.06-138.37,150.68,32.08,150.68,138.37-44.4,151.04-150.68,151.04ZM1328.87,1206.69h-186.49c.38-22.02,1.5-80.19,1.5-139.87s0-113-1.5-139.87h121.6c-.75,20.15-1.13,79.83-1.5,140.25v35.42c19.77-.37,43.64-.73,66.39-1.5,0,17.9-.37,35.43-.37,52.6s.37,35.42.37,52.96ZM1215.89,882.78c-.35-10.32-1.43-27.42-3.21-48.08h-53.76c-2.14,20.31-3.2,37.41-3.55,48.08h-111.45c16.74-67.29,48.43-232.16,53.76-267.06h183.38c6.76,35.6,39.16,199.41,56.97,267.06h-122.14Z"/>
    </g>
  </g>
</svg>