<svg xmlns="http://www.w3.org/2000/svg" width="300" height="280" viewBox="0 0 300 280" fill="none">
  <path d="M256.455 138.284C253.907 121.79 249.482 111.647 242.364 96.5513C238.422 88.1966 230.085 78.1756 214.799 68.1371C197.203 56.5896 173.067 48.2232 145.671 49.2778C133.923 49.8895 118.678 55.5642 96.8265 59.5668C83.3123 62.0429 66.0552 83.5531 58.4119 95.6541C52.3369 105.267 51.4274 109.241 49.6842 120.479C48.2383 129.801 47.3871 151.329 51.0951 168.522C53.8819 181.427 60.0385 190.469 65.9852 197.892C77.2723 211.985 84.729 219.449 100.464 227.792C107.665 231.608 118.608 235.412 126.7 236.385C140.418 238.028 151.758 236.496 165.511 235.185C177.783 234.014 189.718 230.512 201.308 226.323C209.091 223.509 215.551 219.513 222.465 214.962C237.484 205.087 245.483 191.093 251.219 174.313C254.846 163.71 258.163 149.36 256.455 138.29V138.284Z" fill="#009AD5"/>
  <path d="M61.8108 71.8891L75.2726 60.9126L90.8856 50.9149L72.2584 44.6634L53.6254 40.0433L58.441 55.9662L61.8108 71.8891Z" fill="#009AD5"/>
  <path d="M34.8524 148.859V128.846L38.5079 112.299L20.5103 121.371L0 132.406L17.811 139.828L34.8524 148.859Z" fill="#009AD5"/>
  <path d="M41.3005 173.777L35.9135 154.155L20.4987 167.718L5.20046 185.424L25.2269 189.56L46.7925 194.466L41.3005 173.777Z" fill="#009AD5"/>
  <path d="M47.2705 199.564L47.1773 215.918L45.6031 228.555L57.8638 227.658L69.7981 227.465L58.6859 212.737L47.2705 199.564Z" fill="#009AD5"/>
  <path d="M80.0416 228.398L80.4147 246.412L79.237 266.722L95.0016 254.225L113.221 244.88L94.885 236.356L80.0416 228.398Z" fill="#009AD5"/>
  <path d="M134.874 244.07L141.934 260.063L146.435 280L158.468 260.745L169.353 246.033L151.134 245.649L134.874 244.07Z" fill="#009AD5"/>
  <path d="M222.151 226.545L205.36 233.624L193.111 241.874L207.669 250.939L223.649 259.026L221.946 243.726L222.151 226.545Z" fill="#009AD5"/>
  <path d="M258.35 182.173L249.645 196.773L243.285 210.704L255.423 212.457L269.765 213.611L262.122 198.27L258.35 182.173Z" fill="#009AD5"/>
  <path d="M281.705 148.381L264.57 139.438L262.122 155.081V170.73L280.358 166.081L300 159.253L281.705 148.381Z" fill="#009AD5"/>
  <path d="M260.53 109.369L263.801 120.479L276.411 108.163L287.967 93.0556L274.103 95.5609L256.385 95.1763L260.53 109.369Z" fill="#009AD5"/>
  <path d="M246.375 73.9108L252.63 56.3041L261.696 35.6562L237.046 45.2694L217.854 56.0186L230.388 65.929L246.375 73.9108Z" fill="#009AD5"/>
  <path d="M188.517 42.3679L183.497 23.0309L182.308 0.34957L169.254 23.3979L157.605 38.7965L172.338 40.9114L188.517 42.3679Z" fill="#009AD5"/>
  <path d="M141.462 39.0295L132.763 24.8428L122.654 0L117.36 29.0784L112.055 45.5315L141.462 39.0295Z" fill="#009AD5"/>
</svg>